<svg width="16" height="16" viewBox="0 0 16 16" fill="none" xmlns="http://www.w3.org/2000/svg">
<path d="M8.24416 0.581057C6.66957 0.979494 5.7226 2.65371 6.65626 4.05668C7.35866 5.11209 8.06147 5.96815 6.92969 6.52731C6.19991 6.88793 5.36635 6.01312 5.48829 4.98731C5.63866 3.72215 4.90376 2.48959 4.04688 2.23143C5.49179 5.55706 2.68876 7.76262 3.28032 4.64062C2.33388 5.14359 2.25582 6.4849 2.92876 8.47562C1.66713 7.93812 1.20782 6.38915 1.73244 4.70799C0.611631 5.59393 0.0668182 8.79874 1.27538 10.4414C4.26329 14.5025 7.75488 15.5107 8.37501 15.5107C9.03576 15.5107 12.0417 14.4571 14.2998 11.9131C15.6055 10.442 15.8913 6.63493 14.5879 4.29874C14.7748 5.09046 14.3968 6.69831 13.5303 7.23724C13.6865 5.43181 13.408 2.83274 12.3837 1.87693C13.4032 7.27699 9.47716 6.63324 10.872 4.98724C11.7942 3.89896 10.8667 1.78412 10.3252 1.47553C10.6656 2.79178 9.88016 3.6529 8.61516 3.3954C7.76354 3.22206 7.21694 1.99049 8.24413 0.580963L8.24416 0.581057ZM4.64551 7.18949H5.22951V12.3516L8.43951 14.0957L11.6494 12.3516V7.19043H12.2334V12.6992L12.0801 12.7822L8.57813 14.6836L8.43944 14.7598L8.29982 14.6836L4.79782 12.7822L4.64551 12.6992V7.18943V7.18949ZM5.81832 7.19628L8.11622 8.5879V13.2227L5.81832 11.9277V7.19624V7.19628ZM11.0596 7.19628V11.9277L8.70019 13.2578V8.62593L11.0596 7.19624V7.19628Z" fill="black"/>
</svg>
